<svg xmlns="http://www.w3.org/2000/svg" xmlns:xlink="http://www.w3.org/1999/xlink" width="500" zoomAndPan="magnify" viewBox="0 0 375 374.999991" height="500" preserveAspectRatio="xMidYMid meet" version="1.0"><defs><clipPath id="a68aa93c90"><path d="M 67.691406 67.691406 L 306.941406 67.691406 L 306.941406 306.941406 L 67.691406 306.941406 Z M 67.691406 67.691406 " clip-rule="nonzero"/></clipPath></defs><g clip-path="url(#a68aa93c90)"><path fill="#5e17eb" d="M 187.347656 67.691406 C 121.265625 67.691406 67.691406 121.265625 67.691406 187.347656 C 67.691406 253.429688 121.265625 307.003906 187.347656 307.003906 C 253.429688 307.003906 307.003906 253.429688 307.003906 187.347656 C 307.003906 121.265625 253.429688 67.691406 187.347656 67.691406 Z M 187.347656 282.074219 C 135.027344 282.074219 92.617188 239.664062 92.617188 187.347656 C 92.617188 135.03125 135.027344 92.621094 187.347656 92.621094 C 239.664062 92.621094 282.074219 135.03125 282.074219 187.347656 C 282.074219 239.664062 239.664062 282.074219 187.347656 282.074219 Z M 187.347656 282.074219 " fill-opacity="1" fill-rule="nonzero"/></g></svg>