<svg xmlns="http://www.w3.org/2000/svg" xmlns:xlink="http://www.w3.org/1999/xlink" width="500" zoomAndPan="magnify" viewBox="0 0 375 374.999991" height="500" preserveAspectRatio="xMidYMid meet" version="1.0"><defs><clipPath id="b2478866d4"><path d="M 56.25 94.128906 L 168.601562 94.128906 L 168.601562 280.570312 L 56.25 280.570312 Z M 56.25 94.128906 " clip-rule="nonzero"/></clipPath><clipPath id="b6f1be6bb8"><path d="M 206.398438 94.128906 L 318.75 94.128906 L 318.75 280.570312 L 206.398438 280.570312 Z M 206.398438 94.128906 " clip-rule="nonzero"/></clipPath></defs><g clip-path="url(#b2478866d4)"><path fill="#d8d4d4" d="M 112.8125 169.496094 C 106.226562 169.496094 99.9375 170.703125 94.070312 172.808594 C 94.582031 166.867188 95.664062 160.878906 97.355469 154.953125 C 100.785156 142.753906 107.007812 131.027344 115.371094 120.546875 C 123.753906 110.085938 134.460938 100.964844 146.921875 94.125 C 133.0625 97.195312 119.449219 103.128906 107.191406 111.699219 C 94.964844 120.269531 83.933594 131.382812 75.542969 144.679688 C 67.109375 157.925781 61.066406 173.191406 58.195312 189.441406 C 55.941406 202.359375 55.601562 215.8125 57.40625 229.265625 C 57.671875 232.785156 58.277344 236.207031 59.175781 239.515625 C 59.1875 239.566406 59.195312 239.625 59.207031 239.675781 L 59.21875 239.671875 C 65.675781 263.203125 87.222656 280.570312 112.8125 280.570312 C 143.480469 280.570312 168.433594 255.65625 168.433594 225.03125 C 168.433594 194.410156 143.480469 169.496094 112.8125 169.496094 " fill-opacity="1" fill-rule="nonzero"/></g><g clip-path="url(#b6f1be6bb8)"><path fill="#d8d4d4" d="M 263.128906 169.496094 C 256.546875 169.496094 250.25 170.703125 244.382812 172.808594 C 244.902344 166.867188 245.980469 160.878906 247.671875 154.953125 C 251.101562 142.753906 257.324219 131.027344 265.6875 120.546875 C 274.070312 110.085938 284.777344 100.964844 297.238281 94.125 C 283.378906 97.195312 269.765625 103.128906 257.507812 111.699219 C 245.28125 120.269531 234.25 131.382812 225.859375 144.679688 C 217.425781 157.925781 211.382812 173.191406 208.511719 189.441406 C 206.257812 202.359375 205.921875 215.816406 207.726562 229.269531 C 207.992188 232.785156 208.597656 236.203125 209.492188 239.503906 C 209.503906 239.5625 209.511719 239.621094 209.523438 239.675781 L 209.535156 239.671875 C 215.992188 263.203125 237.542969 280.570312 263.128906 280.570312 C 293.800781 280.570312 318.75 255.65625 318.75 225.03125 C 318.75 194.410156 293.800781 169.496094 263.128906 169.496094 " fill-opacity="1" fill-rule="nonzero"/></g></svg>