<svg xmlns="http://www.w3.org/2000/svg" xmlns:xlink="http://www.w3.org/1999/xlink" width="500" zoomAndPan="magnify" viewBox="0 0 375 374.999991" height="500" preserveAspectRatio="xMidYMid meet" version="1.0"><defs><clipPath id="ed1ca96d5d"><path d="M 40 40 L 296 40 L 296 296 L 40 296 Z M 40 40 " clip-rule="nonzero"/></clipPath><clipPath id="49b24dcf1b"><path d="M 37.5 292.566406 L 43.640625 37.640625 L 298.566406 43.78125 L 292.425781 298.707031 Z M 37.5 292.566406 " clip-rule="nonzero"/></clipPath><clipPath id="edcc8a41a4"><path d="M 298.710938 43.644531 L 292.570312 298.570312 L 37.644531 292.429688 L 43.785156 37.503906 Z M 298.710938 43.644531 " clip-rule="nonzero"/></clipPath></defs><g clip-path="url(#ed1ca96d5d)"><g clip-path="url(#49b24dcf1b)"><g clip-path="url(#edcc8a41a4)"><path fill="#c1ff72" d="M 295.640625 171.140625 C 297.335938 100.726562 241.625 42.269531 171.214844 40.574219 C 100.800781 38.875 42.34375 94.585938 40.648438 165 C 38.953125 235.414062 94.65625 293.867188 165.070312 295.5625 C 235.484375 297.261719 293.945312 241.554688 295.640625 171.140625 Z M 67.207031 165.636719 C 68.550781 109.890625 114.828125 65.792969 170.574219 67.132812 C 226.320312 68.476562 270.417969 114.753906 269.078125 170.5 C 267.734375 226.246094 221.453125 270.34375 165.710938 269.003906 C 109.96875 267.660156 65.863281 221.382812 67.207031 165.636719 Z M 67.207031 165.636719 " fill-opacity="1" fill-rule="nonzero"/></g></g></g></svg>