<svg xmlns="http://www.w3.org/2000/svg" xmlns:xlink="http://www.w3.org/1999/xlink" width="500" zoomAndPan="magnify" viewBox="0 0 375 374.999991" height="500" preserveAspectRatio="xMidYMid meet" version="1.0"><defs><clipPath id="43727552c6"><path d="M 82 103 L 311 103 L 311 375 L 82 375 Z M 82 103 " clip-rule="nonzero"/></clipPath><clipPath id="bc8c42ae85"><path d="M 188.722656 510.929688 L 55.125 132.753906 L 203.902344 80.195312 L 337.5 458.371094 Z M 188.722656 510.929688 " clip-rule="nonzero"/></clipPath><clipPath id="964c00347f"><path d="M 89.902344 231.203125 C 70.695312 176.832031 88.429688 120.988281 129.511719 106.476562 C 170.597656 91.960938 219.472656 124.273438 238.683594 178.644531 L 302.722656 359.917969 C 321.929688 414.292969 304.195312 470.136719 263.113281 484.648438 C 222.027344 499.164062 173.152344 466.851562 153.941406 412.480469 Z M 89.902344 231.203125 " clip-rule="nonzero"/></clipPath></defs><g clip-path="url(#43727552c6)"><g clip-path="url(#bc8c42ae85)"><g clip-path="url(#964c00347f)"><path fill="#ff5757" d="M 188.722656 510.929688 L 55.125 132.753906 L 203.902344 80.195312 L 337.5 458.371094 Z M 188.722656 510.929688 " fill-opacity="1" fill-rule="nonzero"/></g></g></g></svg>