<svg width="251" height="41" viewBox="0 0 251 41" fill="none" xmlns="http://www.w3.org/2000/svg">
<g id="logo">
<g id="Group">
<path id="Vector" d="M2.76147 23.9672C3.06016 24.2908 3.19756 24.7042 3.17964 25.1117C3.16171 25.5192 2.98847 25.9207 2.66588 26.2203C2.02071 26.8195 1.01113 26.7775 0.419719 26.1304C0.121027 25.8068 -0.0163718 25.3933 0.00154976 24.9859C0.0194713 24.5784 0.192713 24.1769 0.5153 23.8773C1.16048 23.2781 2.17006 23.314 2.76147 23.9672Z" fill="url(#paint0_linear_107_437)"/>
<path id="Vector_2" d="M25.0678 13.8883C25.0618 13.9303 25.0558 13.9722 25.0558 14.0142C25.0439 14.3737 25.1096 14.7332 25.2589 15.0688L20.3365 19.6169L15.414 24.165C15.0556 23.9673 14.6553 23.8714 14.2611 23.8714L8.9563 8.3455C9.1833 8.22565 9.39239 8.07584 9.58355 7.90207C9.77472 7.7223 9.94198 7.52456 10.0794 7.30884L25.0678 13.8883Z" fill="url(#paint1_linear_107_437)"/>
<path id="Vector_3" d="M4.47004 26.0046L12.0449 26.7057C12.1345 27.0952 12.3197 27.4548 12.5945 27.7604C12.8872 28.078 13.2456 28.2937 13.6339 28.4075L13.7892 34.4837L13.855 37.1202C13.6339 37.2101 13.4248 37.33 13.2337 37.4858L3.75916 27.1671C4.08174 26.8376 4.32667 26.4421 4.47004 26.0046Z" fill="url(#paint2_linear_107_437)"/>
<path id="Vector_4" opacity="0.5" d="M7.40915 8.70512C7.45694 8.70512 7.50473 8.70512 7.5585 8.70512L12.9051 24.3389C12.8453 24.3808 12.7856 24.4288 12.7318 24.4827C12.4929 24.7044 12.3017 24.9741 12.1763 25.2677L4.5895 24.5666C4.49391 23.9793 4.23704 23.4341 3.82484 22.9906C3.43654 22.5652 2.94071 22.2716 2.39709 22.1217L6.78787 8.61523C6.98501 8.66317 7.19409 8.69313 7.40915 8.70512Z" fill="url(#paint3_linear_107_437)"/>
<path id="Vector_5" d="M16.5909 26.4301C16.6328 26.0226 16.573 25.6031 16.3998 25.2256L26.2447 16.1294C26.6091 16.3331 27.0213 16.429 27.4275 16.423L33.1265 32.4583C32.9175 32.5781 32.7143 32.7159 32.5292 32.8837C32.344 33.0515 32.1887 33.2432 32.0572 33.447L16.5909 26.4301Z" fill="url(#paint4_linear_107_437)"/>
<path id="Vector_6" d="M24.7452 3.65375C25.1933 4.14512 25.7847 4.4627 26.4239 4.58255L26.4298 4.84621L26.5971 11.923C26.3104 12.0249 26.0415 12.1807 25.8026 12.4024C25.7488 12.4564 25.6951 12.5103 25.6473 12.5642L20.5098 10.3111L10.5514 5.9368C10.5573 5.88886 10.5633 5.84092 10.5633 5.78699C10.5693 5.57726 10.5573 5.37353 10.5275 5.17578L23.9806 2.05981C24.0702 2.65305 24.333 3.20433 24.7452 3.65375Z" fill="url(#paint5_linear_107_437)"/>
<path id="Vector_7" d="M38.1027 13.7146C37.8219 13.9723 37.5949 14.2779 37.4336 14.6134L29.6318 13.6547C29.5541 13.2472 29.3689 12.8577 29.0702 12.5341C28.7775 12.2165 28.4251 12.0068 28.0368 11.887L27.8695 4.60039V4.50452C28.2996 4.37269 28.6939 4.15097 29.0344 3.83338C29.0344 3.83338 29.0344 3.83338 29.0404 3.82739L38.1027 13.7146Z" fill="url(#paint6_linear_107_437)"/>
<path id="Vector_8" d="M34.7036 32.0808C34.6439 32.0808 34.5782 32.0808 34.5185 32.0808L28.7836 15.9377C28.8373 15.8957 28.8851 15.8598 28.9329 15.8118C29.1599 15.6021 29.3332 15.3564 29.4586 15.0928L37.129 16.0336C37.147 16.7706 37.4277 17.4657 37.9295 18.011C38.3059 18.4245 38.7778 18.7121 39.2975 18.8619L35.2712 32.1527C35.086 32.1167 34.9008 32.0868 34.7036 32.0808Z" fill="url(#paint7_linear_107_437)"/>
<path id="Vector_9" opacity="0.5" d="M16.579 37.7314C16.2206 37.3419 15.7725 37.0962 15.2946 36.9943L15.0676 28.3655C15.3544 28.2636 15.6232 28.1078 15.8562 27.8861C15.904 27.8442 15.9518 27.7962 15.9936 27.7483L31.5614 34.8072C31.5554 34.8671 31.5495 34.933 31.5435 34.9929C31.5375 35.1966 31.5495 35.3944 31.5793 35.5861L17.1525 38.804C17.0569 38.4085 16.8658 38.043 16.579 37.7314Z" fill="url(#paint8_linear_107_437)"/>
<path id="Vector_10" opacity="0.5" d="M9.12361 5.72677C9.10568 6.13424 8.93244 6.53572 8.60985 6.83533C7.96468 7.43455 6.9551 7.39261 6.36369 6.74545C6.065 6.42187 5.9276 6.0084 5.94552 5.60093C5.96344 5.19346 6.13668 4.79198 6.45927 4.49236C7.10445 3.89314 8.11403 3.93508 8.70544 4.58225C8.99815 4.90583 9.14153 5.31929 9.12361 5.72677Z" fill="url(#paint9_linear_107_437)"/>
<path id="Vector_11" d="M28.0547 2.76673C27.4095 3.36595 26.3999 3.32401 25.8085 2.67684C25.5098 2.35326 25.3724 1.9398 25.3903 1.53232C25.4083 1.12485 25.5815 0.723372 25.9041 0.42376C26.5493 -0.175465 27.5588 -0.133519 28.1503 0.513643C28.449 0.837224 28.5864 1.25069 28.5684 1.65816C28.5505 2.06563 28.3773 2.46711 28.0547 2.76673Z" fill="url(#paint10_linear_107_437)"/>
<path id="Vector_12" opacity="0.5" d="M38.9869 17.0282C38.6882 16.7046 38.5508 16.2911 38.5687 15.8836C38.5866 15.4762 38.7599 15.0747 39.0824 14.7751C39.7276 14.1759 40.7372 14.2178 41.3286 14.865C41.6273 15.1885 41.7647 15.602 41.7468 16.0095C41.7289 16.417 41.5556 16.8184 41.233 17.118C40.5878 17.7233 39.5842 17.6813 38.9869 17.0282Z" fill="url(#paint11_linear_107_437)"/>
<path id="Vector_13" d="M32.9892 35.0528C33.0071 34.6454 33.1803 34.2439 33.5029 33.9443C34.1481 33.345 35.1577 33.387 35.7491 34.0342C36.0478 34.3577 36.1852 34.7712 36.1673 35.1787C36.1493 35.5861 35.9761 35.9876 35.6535 36.2872C35.0083 36.8865 33.9987 36.8445 33.4073 36.1974C33.1146 35.8738 32.9712 35.4603 32.9892 35.0528Z" fill="url(#paint12_linear_107_437)"/>
<path id="Vector_14" opacity="0.5" d="M13.6995 38.2289C14.3447 37.6297 15.3543 37.6717 15.9457 38.3188C16.2444 38.6424 16.3818 39.0559 16.3638 39.4633C16.3459 39.8708 16.1727 40.2723 15.8501 40.5719C15.2049 41.1711 14.1953 41.1292 13.6039 40.482C13.3052 40.1584 13.1678 39.745 13.1858 39.3375C13.2037 38.93 13.3709 38.5285 13.6995 38.2289Z" fill="url(#paint13_linear_107_437)"/>
</g>
<g id="Group_2">
<path id="Vector_15" d="M72.5061 31.6913H65.6899L62.1056 23.1583H58.6229V31.6913H51.974V6.91333H63.1809C65.3196 6.91333 67.046 7.26687 68.3483 7.97396C69.6506 8.68104 70.6004 9.6398 71.1919 10.8442C71.7833 12.0487 72.082 13.3969 72.082 14.895C72.082 16.1654 71.9147 17.244 71.5802 18.1428C71.2456 19.0416 70.7856 19.8026 70.1942 20.4378C69.6028 21.073 68.9337 21.6243 68.1691 22.0917L72.5061 31.6913ZM62.4282 18.1907C63.2825 18.1907 63.9934 17.8552 64.5549 17.178C65.1165 16.5069 65.4032 15.7699 65.4032 14.9669C65.4032 14.11 65.0985 13.379 64.4832 12.7678C63.8679 12.1565 63.1869 11.8509 62.4342 11.8509H58.6229V18.1907H62.4282Z" fill="#1D1D1B"/>
<path id="Vector_16" d="M80.8216 24.3567C80.8097 25.0638 80.9172 25.6391 81.1442 26.0885C81.3712 26.5319 81.6819 26.8615 82.0762 27.0652C82.4704 27.269 82.9065 27.3708 83.3844 27.3708C83.9878 27.3708 84.5314 27.257 85.0153 27.0293C85.4992 26.8016 85.8755 26.3462 86.1503 25.657H92.0286C91.8434 26.9693 91.3296 28.1019 90.4754 29.0606C89.6211 30.0194 88.5817 30.7505 87.357 31.2598C86.1324 31.7691 84.8659 32.0328 83.5577 32.0328C81.7237 32.0328 80.1108 31.6613 78.7129 30.9122C77.315 30.1632 76.2337 29.1146 75.4571 27.7663C74.6805 26.4181 74.2982 24.8481 74.2982 23.0564C74.2982 21.3666 74.6566 19.8086 75.3675 18.3765C76.0784 16.9443 77.1059 15.7998 78.4441 14.9309C79.7822 14.0621 81.3951 13.6306 83.2888 13.6306C85.2124 13.6306 86.8194 14.0321 88.1038 14.8291C89.3881 15.626 90.3559 16.7226 91.0011 18.1068C91.6463 19.497 91.9688 21.061 91.9688 22.8107V24.3507H80.8216V24.3567ZM80.7918 20.6236H85.8277C85.8277 20.1801 85.7321 19.7667 85.535 19.3832C85.3379 18.9997 85.0571 18.6941 84.6808 18.4664C84.3044 18.2387 83.8384 18.1248 83.2829 18.1248C82.8289 18.1248 82.4107 18.2387 82.0343 18.4664C81.658 18.6941 81.3593 18.9997 81.1263 19.3832C80.9053 19.7607 80.7918 20.1741 80.7918 20.6236Z" fill="#1D1D1B"/>
<path id="Vector_17" d="M110.273 13.9724L103.391 31.6855H99.1196L92.2556 13.9724H98.1638L101.27 23.0207L104.239 13.9724H110.273Z" fill="#1D1D1B"/>
<path id="Vector_18" d="M116.999 24.3567C116.987 25.0638 117.095 25.6391 117.322 26.0885C117.549 26.5319 117.86 26.8615 118.254 27.0652C118.648 27.269 119.084 27.3708 119.562 27.3708C120.165 27.3708 120.709 27.257 121.193 27.0293C121.677 26.8016 122.053 26.3462 122.328 25.657H128.206C128.021 26.9693 127.507 28.1019 126.653 29.0606C125.799 30.0194 124.759 30.7505 123.535 31.2598C122.31 31.7691 121.044 32.0328 119.735 32.0328C117.901 32.0328 116.288 31.6613 114.891 30.9122C113.493 30.1632 112.411 29.1146 111.635 27.7663C110.858 26.4181 110.476 24.8481 110.476 23.0564C110.476 21.3666 110.834 19.8086 111.545 18.3765C112.256 16.9443 113.284 15.7998 114.622 14.9309C115.96 14.0621 117.573 13.6306 119.466 13.6306C121.39 13.6306 122.997 14.0321 124.281 14.8291C125.566 15.626 126.534 16.7226 127.179 18.1068C127.824 19.497 128.146 21.061 128.146 22.8107V24.3507H116.999V24.3567ZM116.963 20.6236H121.999C121.999 20.1801 121.904 19.7667 121.707 19.3832C121.51 18.9997 121.229 18.6941 120.852 18.4664C120.476 18.2387 120.01 18.1248 119.455 18.1248C119.001 18.1248 118.582 18.2387 118.206 18.4664C117.83 18.6941 117.531 18.9997 117.298 19.3832C117.077 19.7607 116.963 20.1741 116.963 20.6236Z" fill="#1D1D1B"/>
<path id="Vector_19" d="M130.853 31.6914V13.9723H137.43V16.4231C137.681 16.0456 137.997 15.6621 138.386 15.2726C138.774 14.8831 139.276 14.5595 139.891 14.2959C140.506 14.0322 141.277 13.9004 142.197 13.9004C143.23 13.9004 144.222 14.0981 145.16 14.4996C146.098 14.9011 146.869 15.5423 147.466 16.4171C148.063 17.298 148.362 18.4545 148.362 19.8926V31.6794H141.701V20.8094C141.701 20.2282 141.486 19.7788 141.05 19.4732C140.62 19.1676 140.148 19.0118 139.652 19.0118C139.336 19.0118 139.007 19.0837 138.672 19.2155C138.338 19.3473 138.057 19.5571 137.836 19.8207C137.615 20.0904 137.502 20.42 137.502 20.8035V31.6854H130.853V31.6914Z" fill="#1D1D1B"/>
<path id="Vector_20" d="M157.944 32.033C157.227 32.033 156.48 31.9072 155.704 31.6615C154.927 31.4158 154.204 31.0563 153.535 30.5709C152.866 30.0915 152.317 29.5043 151.893 28.8152C151.468 28.1261 151.259 27.3351 151.259 26.4423V13.9724H157.92V25.5195C157.92 26.0348 158.105 26.4662 158.482 26.8138C158.858 27.1613 159.378 27.3351 160.053 27.3351C160.728 27.3351 161.254 27.1613 161.63 26.8138C162.012 26.4662 162.203 26.0348 162.203 25.5195V13.9724H168.798V31.6855H163.882L163.099 28.0542C162.884 29.2287 162.472 30.1035 161.869 30.6668C161.265 31.2301 160.602 31.6016 159.88 31.7694C159.157 31.9491 158.512 32.033 157.944 32.033Z" fill="#1D1D1B"/>
<path id="Vector_21" d="M177.807 24.3567C177.795 25.0638 177.903 25.6391 178.13 26.0885C178.357 26.5319 178.667 26.8615 179.062 27.0652C179.456 27.269 179.892 27.3708 180.37 27.3708C180.973 27.3708 181.517 27.257 182.001 27.0293C182.485 26.8016 182.861 26.3462 183.136 25.657H189.014C188.829 26.9693 188.315 28.1019 187.461 29.0606C186.607 30.0194 185.567 30.7505 184.343 31.2598C183.118 31.7691 181.851 32.0328 180.543 32.0328C178.709 32.0328 177.096 31.6613 175.698 30.9122C174.3 30.1632 173.219 29.1146 172.443 27.7663C171.666 26.4181 171.284 24.8481 171.284 23.0564C171.284 21.3666 171.642 19.8086 172.353 18.3765C173.064 16.9443 174.091 15.7998 175.43 14.9309C176.768 14.0621 178.381 13.6306 180.274 13.6306C182.198 13.6306 183.805 14.0321 185.089 14.8291C186.374 15.626 187.341 16.7226 187.987 18.1068C188.632 19.497 188.954 21.061 188.954 22.8107V24.3507H177.807V24.3567ZM177.771 20.6236H182.807C182.807 20.1801 182.712 19.7667 182.515 19.3832C182.317 18.9997 182.037 18.6941 181.66 18.4664C181.284 18.2387 180.818 18.1248 180.262 18.1248C179.808 18.1248 179.39 18.2387 179.014 18.4664C178.637 18.6941 178.339 18.9997 178.106 19.3832C177.885 19.7607 177.771 20.1741 177.771 20.6236Z" fill="#1D1D1B"/>
<path id="Vector_22" d="M192.252 6.91333H198.895V26.2024H208.77V31.6853H192.252V6.91333Z" fill="#1D1D1B"/>
<path id="Vector_23" d="M217.581 32.0331C216.476 32.0331 215.46 31.8173 214.534 31.3799C213.608 30.9425 212.867 30.3073 212.312 29.4684C211.762 28.6295 211.482 27.5988 211.482 26.3764C211.482 24.4589 212.24 22.9668 213.764 21.9062C215.281 20.8455 217.647 20.3122 220.86 20.3122H222.229V19.5572C222.229 18.9879 222.073 18.5685 221.757 18.3048C221.446 18.0412 220.95 17.9213 220.281 17.9453C219.827 17.9573 219.325 18.0651 218.776 18.2689C218.226 18.4726 217.82 18.8801 217.545 19.4853H212.163C212.234 18.0891 212.646 16.9626 213.411 16.0997C214.176 15.2368 215.179 14.6076 216.434 14.2121C217.688 13.8166 219.068 13.6189 220.586 13.6189C222.635 13.6189 224.242 13.8526 225.401 14.32C226.56 14.7874 227.384 15.4345 227.862 16.2675C228.34 17.0944 228.579 18.0532 228.579 19.1378V31.6795H223.077L222.497 28.8692C221.972 30.0676 221.326 30.8945 220.55 31.344C219.779 31.8054 218.788 32.0331 217.581 32.0331ZM219.923 27.8145C220.239 27.8145 220.538 27.7606 220.819 27.6407C221.099 27.5269 221.338 27.3711 221.542 27.1674C221.745 26.9696 221.906 26.7419 222.025 26.4902C222.145 26.2386 222.211 25.9689 222.223 25.6873V23.4582H221.165C220.813 23.4582 220.365 23.5241 219.815 23.6559C219.265 23.7877 218.782 24.0154 218.357 24.333C217.933 24.6506 217.718 25.106 217.718 25.6873C217.718 26.3524 217.945 26.8677 218.393 27.2453C218.841 27.6228 219.355 27.8145 219.923 27.8145Z" fill="#1D1D1B"/>
<path id="Vector_24" d="M242.964 32.0331C242.247 32.0331 241.602 31.9432 241.034 31.7574C240.467 31.5777 239.959 31.314 239.523 30.9664C239.087 30.6249 238.71 30.2054 238.394 29.7141C238.083 29.2227 237.82 28.6714 237.617 28.0542L236.829 31.6855H232.133V6.23047H238.794V15.9978C239.069 15.5424 239.391 15.1589 239.768 14.8593C240.144 14.5597 240.55 14.314 240.986 14.1402C241.423 13.9665 241.871 13.8346 242.331 13.7567C242.785 13.6788 243.233 13.6369 243.681 13.6369C245.855 13.6369 247.546 14.4518 248.746 16.0757C249.947 17.7056 250.551 19.9168 250.551 22.7151C250.551 24.6027 250.258 26.2386 249.672 27.6348C249.087 29.031 248.227 30.1096 247.104 30.8826C245.969 31.6496 244.595 32.0331 242.964 32.0331ZM241.393 27.3711C242.145 27.3711 242.785 27.0295 243.322 26.3524C243.86 25.6753 244.123 24.4589 244.123 22.7091C244.123 21.0673 243.854 19.9227 243.322 19.2816C242.785 18.6404 242.145 18.3228 241.393 18.3228C240.879 18.3228 240.425 18.4666 240.037 18.7602C239.642 19.0539 239.338 19.5213 239.123 20.1624C238.908 20.8036 238.8 21.6545 238.8 22.7091C238.8 24.4589 239.039 25.6693 239.517 26.3524C239.995 27.0355 240.616 27.3711 241.393 27.3711Z" fill="#1D1D1B"/>
</g>
</g>
<defs>
<linearGradient id="paint0_linear_107_437" x1="0.00154976" y1="25.046" x2="3.18328" y2="25.046" gradientUnits="userSpaceOnUse">
<stop stop-color="#9142FF"/>
<stop offset="0.5364" stop-color="#585DDF"/>
<stop offset="0.9988" stop-color="#2875C4"/>
</linearGradient>
<linearGradient id="paint1_linear_107_437" x1="8.95833" y1="15.7351" x2="25.2647" y2="15.7351" gradientUnits="userSpaceOnUse">
<stop stop-color="#9142FF"/>
<stop offset="0.5364" stop-color="#585DDF"/>
<stop offset="0.9988" stop-color="#2875C4"/>
</linearGradient>
<linearGradient id="paint2_linear_107_437" x1="3.75808" y1="31.7463" x2="13.8566" y2="31.7463" gradientUnits="userSpaceOnUse">
<stop stop-color="#9142FF"/>
<stop offset="0.5364" stop-color="#585DDF"/>
<stop offset="0.9988" stop-color="#2875C4"/>
</linearGradient>
<linearGradient id="paint3_linear_107_437" x1="2.39692" y1="16.9374" x2="12.8995" y2="16.9374" gradientUnits="userSpaceOnUse">
<stop stop-color="#9142FF"/>
<stop offset="0.5364" stop-color="#585DDF"/>
<stop offset="0.9988" stop-color="#2875C4"/>
</linearGradient>
<linearGradient id="paint4_linear_107_437" x1="16.3964" y1="24.7854" x2="33.1214" y2="24.7854" gradientUnits="userSpaceOnUse">
<stop stop-color="#9142FF"/>
<stop offset="0.5364" stop-color="#585DDF"/>
<stop offset="0.9988" stop-color="#2875C4"/>
</linearGradient>
<linearGradient id="paint5_linear_107_437" x1="10.527" y1="7.31034" x2="26.5957" y2="7.31034" gradientUnits="userSpaceOnUse">
<stop stop-color="#9142FF"/>
<stop offset="0.5364" stop-color="#585DDF"/>
<stop offset="0.9988" stop-color="#2875C4"/>
</linearGradient>
<linearGradient id="paint6_linear_107_437" x1="27.8652" y1="9.22053" x2="38.1069" y2="9.22053" gradientUnits="userSpaceOnUse">
<stop stop-color="#9142FF"/>
<stop offset="0.5364" stop-color="#585DDF"/>
<stop offset="0.9988" stop-color="#2875C4"/>
</linearGradient>
<linearGradient id="paint7_linear_107_437" x1="28.783" y1="23.6242" x2="39.2974" y2="23.6242" gradientUnits="userSpaceOnUse">
<stop stop-color="#9142FF"/>
<stop offset="0.5364" stop-color="#585DDF"/>
<stop offset="0.9988" stop-color="#2875C4"/>
</linearGradient>
<linearGradient id="paint8_linear_107_437" x1="15.0712" y1="33.2778" x2="31.5833" y2="33.2778" gradientUnits="userSpaceOnUse">
<stop stop-color="#9142FF"/>
<stop offset="0.5364" stop-color="#585DDF"/>
<stop offset="0.9988" stop-color="#2875C4"/>
</linearGradient>
<linearGradient id="paint9_linear_107_437" x1="5.94235" y1="5.66415" x2="9.12414" y2="5.66415" gradientUnits="userSpaceOnUse">
<stop stop-color="#9142FF"/>
<stop offset="0.5364" stop-color="#585DDF"/>
<stop offset="0.9988" stop-color="#2875C4"/>
</linearGradient>
<linearGradient id="paint10_linear_107_437" x1="25.3846" y1="1.5941" x2="28.5663" y2="1.5941" gradientUnits="userSpaceOnUse">
<stop stop-color="#9142FF"/>
<stop offset="0.5364" stop-color="#585DDF"/>
<stop offset="0.9988" stop-color="#2875C4"/>
</linearGradient>
<linearGradient id="paint11_linear_107_437" x1="38.567" y1="15.9498" x2="41.7487" y2="15.9498" gradientUnits="userSpaceOnUse">
<stop stop-color="#9142FF"/>
<stop offset="0.5364" stop-color="#585DDF"/>
<stop offset="0.9988" stop-color="#2875C4"/>
</linearGradient>
<linearGradient id="paint12_linear_107_437" x1="32.9892" y1="35.1187" x2="36.171" y2="35.1187" gradientUnits="userSpaceOnUse">
<stop stop-color="#9142FF"/>
<stop offset="0.5364" stop-color="#585DDF"/>
<stop offset="0.9988" stop-color="#2875C4"/>
</linearGradient>
<linearGradient id="paint13_linear_107_437" x1="13.1838" y1="39.402" x2="16.3655" y2="39.402" gradientUnits="userSpaceOnUse">
<stop stop-color="#9142FF"/>
<stop offset="0.5364" stop-color="#585DDF"/>
<stop offset="0.9988" stop-color="#2875C4"/>
</linearGradient>
</defs>
</svg>
